<svg width="32" height="32" viewBox="0 0 32 32" fill="none" xmlns="http://www.w3.org/2000/svg">
  <!-- Shadow -->
  <ellipse cx="16" cy="30" rx="10" ry="1.5" fill="rgba(0,0,0,0.2)"/>
  
  <!-- Base platform -->
  <rect x="8" y="26" width="16" height="4" rx="2" fill="#34495E" stroke="#FFFFFF" stroke-width="1"/>
  
  <!-- Main charging post -->
  <rect x="13" y="8" width="6" height="18" rx="1" fill="#2ECC71" stroke="#FFFFFF" stroke-width="1.5"/>
  
  <!-- Display screen -->
  <rect x="14" y="12" width="4" height="6" rx="0.5" fill="#1ABC9C" stroke="#FFFFFF" stroke-width="1"/>
  <rect x="14.5" y="12.5" width="3" height="5" fill="#16A085"/>
  
  <!-- Screen content -->
  <rect x="15" y="13" width="2" height="0.5" fill="#FFFFFF"/>
  <rect x="15" y="14" width="1.5" height="0.5" fill="#FFFFFF"/>
  <rect x="15" y="15" width="2" height="0.5" fill="#FFFFFF"/>
  <circle cx="16.5" cy="16.5" r="0.5" fill="#FFD700"/>
  
  <!-- Charging cable -->
  <path d="M19 16 Q22 14 24 16 Q26 18 24 20 Q22 18 20 19" stroke="#2C3E50" stroke-width="2" fill="none"/>
  
  <!-- Cable connector -->
  <circle cx="24" cy="20" r="2" fill="#E74C3C" stroke="#FFFFFF" stroke-width="1"/>
  <circle cx="24" cy="20" r="1" fill="#C0392B"/>
  
  <!-- Lightning bolt on connector -->
  <path d="M23 20 L24 18.5 L23.5 20 L25 20 L24 21.5 L24.5 20 Z" fill="#FFD700"/>
  
  <!-- Top housing -->
  <rect x="12" y="4" width="8" height="6" rx="2" fill="#3498DB" stroke="#FFFFFF" stroke-width="1.5"/>
  
  <!-- Logo/Brand area -->
  <circle cx="16" cy="6.5" r="1.5" fill="#FFFFFF"/>
  <path d="M15 6.5 L16 5.5 L15.5 6.5 L17 6.5 L16 7.5 L16.5 6.5 Z" fill="#3498DB"/>
  
  <!-- Status lights -->
  <circle cx="14" cy="9" r="0.5" fill="#2ECC71"/>
  <circle cx="16" cy="9" r="0.5" fill="#F39C12"/>
  <circle cx="18" cy="9" r="0.5" fill="#E74C3C"/>
  
  <!-- Power indicator -->
  <g transform="translate(10, 20)">
    <rect x="0" y="0" width="2" height="4" rx="0.5" fill="#27AE60"/>
    <rect x="0" y="0.5" width="2" height="1" fill="#2ECC71"/>
    <text x="1" y="2.5" text-anchor="middle" font-family="Arial" font-size="1" fill="#FFFFFF">⚡</text>
  </g>
  
  <!-- Energy waves -->
  <g opacity="0.6">
    <circle cx="16" cy="7" r="3" stroke="#3498DB" stroke-width="0.5" fill="none" opacity="0.8"/>
    <circle cx="16" cy="7" r="5" stroke="#3498DB" stroke-width="0.3" fill="none" opacity="0.4"/>
    <circle cx="16" cy="7" r="7" stroke="#3498DB" stroke-width="0.2" fill="none" opacity="0.2"/>
  </g>
  
  <!-- Ground connection -->
  <rect x="15" y="28" width="2" height="2" fill="#7F8C8D"/>
  <line x1="13" y1="30" x2="19" y2="30" stroke="#7F8C8D" stroke-width="1"/>
</svg>