<svg width="32" height="32" viewBox="0 0 32 32" fill="none" xmlns="http://www.w3.org/2000/svg">
  <!-- Shadow -->
  <ellipse cx="16" cy="28" rx="12" ry="2" fill="rgba(0,0,0,0.2)"/>
  
  <!-- Main vehicle body -->
  <rect x="6" y="14" width="20" height="10" rx="2" fill="#00D2FF" stroke="#FFFFFF" stroke-width="1.5"/>
  
  <!-- Vehicle cab -->
  <path d="M8 14 L10 8 L22 8 L24 14" fill="#00B8D4" stroke="#FFFFFF" stroke-width="1.5"/>
  
  <!-- Windows -->
  <path d="M9 13 L11 9 L21 9 L23 13" fill="#E3F2FD" stroke="#FFFFFF" stroke-width="1"/>
  
  <!-- Wheels -->
  <circle cx="10" cy="24" r="3" fill="#2C3E50" stroke="#FFFFFF" stroke-width="1.5"/>
  <circle cx="22" cy="24" r="3" fill="#2C3E50" stroke="#FFFFFF" stroke-width="1.5"/>
  <circle cx="10" cy="24" r="1.5" fill="#4CAF50"/>
  <circle cx="22" cy="24" r="1.5" fill="#4CAF50"/>
  
  <!-- Lightning bolt icon -->
  <g transform="translate(13, 2)">
    <circle cx="3" cy="4" r="4" fill="#FFD700" stroke="#FFFFFF" stroke-width="1"/>
    <path d="M1.5 4 L3.5 1 L2.8 4 L4.5 4 L2.5 7 L3.2 4 Z" fill="#FFFFFF"/>
  </g>
  
  <!-- Battery indicator -->
  <g transform="translate(20, 16)">
    <rect x="0" y="0" width="8" height="4" rx="1" fill="#4CAF50" stroke="#FFFFFF" stroke-width="1"/>
    <rect x="8" y="1" width="1" height="2" fill="#4CAF50"/>
    <!-- Battery level bars -->
    <rect x="1" y="1" width="1" height="2" fill="#FFFFFF"/>
    <rect x="3" y="1" width="1" height="2" fill="#FFFFFF"/>
    <rect x="5" y="1" width="1" height="2" fill="#FFFFFF"/>
    <rect x="7" y="1" width="1" height="2" fill="#FFFFFF"/>
  </g>
  
  <!-- Electric particles -->
  <g opacity="0.8">
    <circle cx="4" cy="18" r="0.5" fill="#FFD700"/>
    <circle cx="2" cy="16" r="0.4" fill="#FFC107"/>
    <circle cx="1" cy="14" r="0.3" fill="#FFEB3B"/>
    <circle cx="28" cy="18" r="0.5" fill="#FFD700"/>
    <circle cx="30" cy="16" r="0.4" fill="#FFC107"/>
    <circle cx="31" cy="14" r="0.3" fill="#FFEB3B"/>
  </g>
  
  <!-- License plate -->
  <rect x="12" y="20" width="8" height="2" rx="0.5" fill="#FFFFFF" stroke="#2C3E50" stroke-width="0.5"/>
  <text x="16" y="21.3" text-anchor="middle" font-family="Arial" font-size="1.5" fill="#2C3E50">EV</text>
  
  <!-- Eco leaf -->
  <g transform="translate(2, 10)">
    <path d="M0 2 Q2 0 4 2 Q2 4 0 2" fill="#4CAF50"/>
    <path d="M0 2 Q2 1 4 2" stroke="#2E7D32" stroke-width="0.5" fill="none"/>
  </g>
</svg>