<svg width="32" height="32" viewBox="0 0 32 32" fill="none" xmlns="http://www.w3.org/2000/svg">
  <!-- Background circle -->
  <circle cx="16" cy="16" r="15" fill="#1976d2" stroke="#1565c0" stroke-width="2"/>
  
  <!-- Electric vehicle icon -->
  <path d="M8 20h16v2H8v-2z" fill="white"/>
  <path d="M10 18h12v2H10v-2z" fill="white"/>
  <rect x="9" y="16" width="14" height="4" rx="1" fill="white"/>
  
  <!-- Wheels -->
  <circle cx="11" cy="22" r="2" fill="#1976d2"/>
  <circle cx="21" cy="22" r="2" fill="#1976d2"/>
  
  <!-- Lightning bolt for electric -->
  <path d="M16 6l-2 4h3l-2 4" stroke="white" stroke-width="2" stroke-linecap="round" stroke-linejoin="round" fill="none"/>
  
  <!-- Leaf for sustainability -->
  <path d="M20 8c-2 0-4 1-5 3-1-2-3-3-5-3-1 0-2 1-2 2s1 2 2 2c2 0 4-1 5-3 1 2 3 3 5 3 1 0 2-1 2-2s-1-2-2-2z" fill="#4caf50"/>
</svg>
