<svg width="32" height="32" viewBox="0 0 32 32" fill="none" xmlns="http://www.w3.org/2000/svg">
  <!-- Shadow -->
  <ellipse cx="16" cy="28" rx="12" ry="2" fill="rgba(0,0,0,0.2)"/>
  
  <!-- Main vehicle body -->
  <rect x="6" y="14" width="20" height="10" rx="2" fill="#FF6B35" stroke="#FFFFFF" stroke-width="1.5"/>
  
  <!-- Vehicle cab -->
  <path d="M8 14 L10 8 L22 8 L24 14" fill="#FF8C69" stroke="#FFFFFF" stroke-width="1.5"/>
  
  <!-- Windows -->
  <path d="M9 13 L11 9 L21 9 L23 13" fill="#87CEEB" stroke="#FFFFFF" stroke-width="1"/>
  
  <!-- Wheels -->
  <circle cx="10" cy="24" r="3" fill="#2C3E50" stroke="#FFFFFF" stroke-width="1.5"/>
  <circle cx="22" cy="24" r="3" fill="#2C3E50" stroke="#FFFFFF" stroke-width="1.5"/>
  <circle cx="10" cy="24" r="1.5" fill="#34495E"/>
  <circle cx="22" cy="24" r="1.5" fill="#34495E"/>
  
  <!-- Fuel pump icon -->
  <g transform="translate(13, 3)">
    <rect x="0" y="0" width="6" height="8" rx="1" fill="#FF4757" stroke="#FFFFFF" stroke-width="1"/>
    <rect x="1" y="1" width="4" height="2" fill="#FFFFFF"/>
    <path d="M5 4 L7 4 L7 6 L5 6" fill="#FF4757" stroke="#FFFFFF" stroke-width="0.5"/>
    <circle cx="6.5" cy="3" r="0.5" fill="#FFFFFF"/>
    <!-- Fuel drop -->
    <path d="M3 5.5 Q3 6.5 3.5 6.5 Q4 6.5 4 5.5 Q4 5 3.5 4.5 Q3 5 3 5.5" fill="#3742FA"/>
  </g>
  
  <!-- Exhaust smoke -->
  <g opacity="0.6">
    <circle cx="4" cy="18" r="1" fill="#95A5A6"/>
    <circle cx="2" cy="16" r="0.8" fill="#BDC3C7"/>
    <circle cx="1" cy="14" r="0.6" fill="#ECF0F1"/>
  </g>
  
  <!-- License plate -->
  <rect x="12" y="20" width="8" height="2" rx="0.5" fill="#FFFFFF" stroke="#2C3E50" stroke-width="0.5"/>
  <text x="16" y="21.3" text-anchor="middle" font-family="Arial" font-size="1.5" fill="#2C3E50">ICE</text>
</svg>