<svg width="192" height="192" viewBox="0 0 192 192" fill="none" xmlns="http://www.w3.org/2000/svg">
  <!-- Background circle with gradient -->
  <defs>
    <linearGradient id="bgGradient" x1="0%" y1="0%" x2="100%" y2="100%">
      <stop offset="0%" style="stop-color:#1976d2;stop-opacity:1" />
      <stop offset="100%" style="stop-color:#1565c0;stop-opacity:1" />
    </linearGradient>
  </defs>
  <circle cx="96" cy="96" r="90" fill="url(#bgGradient)" stroke="#0d47a1" stroke-width="4"/>
  
  <!-- Electric vehicle -->
  <rect x="48" y="120" width="96" height="12" rx="2" fill="white"/>
  <rect x="52" y="108" width="88" height="12" rx="2" fill="white"/>
  <rect x="56" y="96" width="80" height="24" rx="4" fill="white"/>
  
  <!-- Wheels -->
  <circle cx="68" cy="132" r="12" fill="#1976d2"/>
  <circle cx="124" cy="132" r="12" fill="#1976d2"/>
  <circle cx="68" cy="132" r="8" fill="white"/>
  <circle cx="124" cy="132" r="8" fill="white"/>
  
  <!-- Lightning bolt for electric -->
  <path d="M96 24l-12 24h18l-12 24" stroke="white" stroke-width="8" stroke-linecap="round" stroke-linejoin="round" fill="none"/>
  
  <!-- Leaf for sustainability -->
  <path d="M120 36c-12 0-24 6-30 18-6-12-18-18-30-18-6 0-12 6-12 12s6 12 12 12c12 0 24-6 30-18 6 12 18 18 30 18 6 0 12-6 12-12s-6-12-12-12z" fill="#4caf50"/>
  
  <!-- Fleet indicator dots -->
  <circle cx="60" cy="60" r="4" fill="white" opacity="0.8"/>
  <circle cx="96" cy="60" r="4" fill="white" opacity="0.8"/>
  <circle cx="132" cy="60" r="4" fill="white" opacity="0.8"/>
</svg>
