<svg width="512" height="512" viewBox="0 0 512 512" fill="none" xmlns="http://www.w3.org/2000/svg">
  <!-- Background circle with gradient -->
  <defs>
    <linearGradient id="bgGradient" x1="0%" y1="0%" x2="100%" y2="100%">
      <stop offset="0%" style="stop-color:#1976d2;stop-opacity:1" />
      <stop offset="100%" style="stop-color:#1565c0;stop-opacity:1" />
    </linearGradient>
  </defs>
  <circle cx="256" cy="256" r="240" fill="url(#bgGradient)" stroke="#0d47a1" stroke-width="8"/>
  
  <!-- Electric vehicle -->
  <rect x="128" y="320" width="256" height="32" rx="4" fill="white"/>
  <rect x="136" y="288" width="240" height="32" rx="4" fill="white"/>
  <rect x="144" y="256" width="224" height="64" rx="8" fill="white"/>
  
  <!-- Wheels -->
  <circle cx="180" cy="352" r="32" fill="#1976d2"/>
  <circle cx="332" cy="352" r="32" fill="#1976d2"/>
  <circle cx="180" cy="352" r="20" fill="white"/>
  <circle cx="332" cy="352" r="20" fill="white"/>
  
  <!-- Lightning bolt for electric -->
  <path d="M256 64l-32 64h48l-32 64" stroke="white" stroke-width="16" stroke-linecap="round" stroke-linejoin="round" fill="none"/>
  
  <!-- Leaf for sustainability -->
  <path d="M320 96c-32 0-64 16-80 48-16-32-48-48-80-48-16 0-32 16-32 32s16 32 32 32c32 0 64-16 80-48 16 32 48 48 80 48 16 0 32-16 32-32s-16-32-32-32z" fill="#4caf50"/>
  
  <!-- Fleet indicator dots -->
  <circle cx="160" cy="160" r="12" fill="white" opacity="0.8"/>
  <circle cx="256" cy="160" r="12" fill="white" opacity="0.8"/>
  <circle cx="352" cy="160" r="12" fill="white" opacity="0.8"/>
  
  <!-- Additional sustainability elements -->
  <circle cx="96" cy="96" r="8" fill="#4caf50" opacity="0.6"/>
  <circle cx="416" cy="96" r="8" fill="#4caf50" opacity="0.6"/>
  <circle cx="96" cy="416" r="8" fill="#4caf50" opacity="0.6"/>
  <circle cx="416" cy="416" r="8" fill="#4caf50" opacity="0.6"/>
</svg>
